<?xml version="1.0" encoding="UTF-8"?>
<svg width="48" height="48" version="1.1" viewBox="0 0 48 48" xmlns="http://www.w3.org/2000/svg" xmlns:xlink="http://www.w3.org/1999/xlink">
    <!--Generated by IJSVG (https://github.com/iconjar/IJSVG)-->
    <g transform="scale(0.75)">
        <path fill="#444A55" fill-rule="evenodd" d="M33.4079,53.43l-2.03692e-08,2.03964e-08c-0.780137,0.781179 -2.04583,0.782024 -2.82701,0.00188768c-0.00062966,-0.000628819 -0.0012589,-0.00125806 -0.00188772,-0.00188772l-15.0046,-15.0121l-2.11026e-07,-2.10915e-07c-0.781621,-0.781207 -0.781956,-2.04813 -0.000749536,-2.82975c0.781207,-0.781621 2.04813,-0.781956 2.82975,-0.000749578l11.6066,11.6126v-35.1791l2.4869e-14,3.01992e-07c-1.66785e-07,-1.10457 0.89543,-2 2,-2c1.10457,-1.66785e-07 2,0.89543 2,2c0,0 0,3.55271e-15 0,3.55271e-15v35.1453l11.5733,-11.5788l-1.24732e-07,1.24674e-07c0.781621,-0.781262 2.04859,-0.780971 2.82985,0.000649708c0.781262,0.781621 0.780971,2.04859 -0.000649708,2.82985c-1.40592e-08,1.40528e-08 -2.81185e-08,2.81056e-08 -4.21777e-08,4.21584e-08Z"></path>
    </g>
</svg>