<?xml version="1.0" encoding="UTF-8"?>
<svg version="1.1" viewBox="0 0 64 64" xmlns="http://www.w3.org/2000/svg" xmlns:xlink="http://www.w3.org/1999/xlink">
    <!--Generated by IJSVG (https://github.com/iconjar/IJSVG)-->
    <path d="M32.01,8.02l4.11437e-07,-1.71383e-11c13.2554,-0.000552057 24.0014,10.7446 24.002,24c0.000552057,13.2554 -10.7446,24.0014 -24,24.002c-13.2554,0.000552057 -24.0014,-10.7446 -24.002,-24c-1.66588e-08,-0.000399993 -2.33184e-08,-0.000799985 -1.99787e-08,-0.00119998l-2.09695e-10,9.67705e-05c2.00144e-06,-13.2549 10.745,-24.0003 23.9999,-24.0009Zm-10.4143,31.574l-1.00471e-07,1.03417e-07c-0.770296,0.792888 -0.751981,2.0601 0.040907,2.83039c0.776889,0.754752 2.01322,0.754577 2.78989,-0.000394476l7.573,-7.5731l7.5842,7.5841l-2.62989e-08,-2.56056e-08c0.792003,0.771126 2.05917,0.754202 2.8303,-0.0378009c0.756718,-0.777205 0.756586,-2.01576 -0.000299115,-2.7928l-7.5837,-7.5837l7.6132,-7.613l4.51181e-08,-4.69304e-08c0.766097,-0.796869 0.741151,-2.0639 -0.0557181,-2.83c-0.774774,-0.744855 -1.99951,-0.744855 -2.77428,9.02363e-08l-7.6137,7.6123l-7.6019,-7.602l5.20658e-08,5.20713e-08c-0.781649,-0.781731 -2.04902,-0.781799 -2.83075,-0.000150104c-0.781731,0.781649 -0.781799,2.04902 -0.000150104,2.83075l7.6022,7.602Z" fill="#ED3F3F" fill-rule="evenodd"></path>
</svg>