<?xml version="1.0" encoding="UTF-8"?><svg version="1.1" viewBox="0 0 64 64" xmlns="http://www.w3.org/2000/svg" xmlns:xlink="http://www.w3.org/1999/xlink"><!--Generated by IJSVG (https://github.com/iconjar/IJSVG)--><path d="M30,14.1227v-5.097l3.45032e-10,-2.2439e-08c0.00869924,-0.565749 0.474381,-1.01733 1.04013,-1.00863c0.207435,0.00318962 0.409014,0.0692799 0.57807,0.189528l9.9482,6.9888l1.90989e-08,1.32478e-08c0.452349,0.313767 0.564691,0.934827 0.250924,1.38718c-0.0679601,0.097976 -0.152948,0.182964 -0.250924,0.250924l-9.9482,6.9888l-3.56473e-09,2.53556e-09c-0.461076,0.327958 -1.10071,0.220045 -1.42867,-0.24103c-0.120248,-0.169056 -0.186338,-0.370635 -0.189528,-0.57807v-4.8419l-6.12845e-07,7.78862e-08c-8.76254,1.11363 -14.9632,9.11984 -13.8496,17.8824c1.11363,8.76254 9.11984,14.9632 17.8824,13.8496c7.9916,-1.01565 13.9805,-7.81658 13.9772,-15.8725l2.13163e-14,3.01992e-07c-1.66785e-07,-1.10457 0.89543,-2 2,-2c1.10457,-1.66785e-07 2,0.89543 2,2c0,0 0,0 0,0l1.03068e-08,0.000642085c0,11.0457 -8.95431,20 -20,20c-11.0457,0 -20,-8.95431 -20,-20c0,-10.2676 7.77498,-18.8672 17.9906,-19.8988Z" fill="#000" fill-rule="evenodd"></path></svg>