<?xml version="1.0" encoding="UTF-8"?>
<svg version="1.1" viewBox="0 0 64 64" xmlns="http://www.w3.org/2000/svg" xmlns:xlink="http://www.w3.org/1999/xlink">
    <!--Generated by IJSVG (https://github.com/iconjar/IJSVG)-->
    <path d="M32.01,56.0208l-1.04907e-06,-2.13163e-14c-13.2548,-5.79387e-07 -24,-10.7452 -24,-24c5.79387e-07,-13.2548 10.7452,-24 24,-24c13.2548,5.79387e-07 24,10.7452 24,24l2.84217e-14,-1.04907e-06c0,13.2548 -10.7452,24 -24,24Zm13.4,-35.4186l-3.49088e-08,-3.45428e-08c-0.785624,-0.777389 -2.0527,-0.770712 -2.83008,0.0149119c-0.0803372,0.0811883 -0.153576,0.169105 -0.218915,0.262788l-12.8438,18.3901l-5.8744,-8.4112l5.28764e-08,7.58143e-08c-0.632255,-0.906528 -1.87968,-1.12887 -2.78621,-0.496615c-0.0936828,0.0653387 -0.1816,0.138578 -0.262788,0.218915l2.67369e-08,-2.81027e-08c-0.695734,0.731275 -0.767842,1.85586 -0.1712,2.67l6.6244,9.485l8.22893e-08,1.17716e-07c0.953738,1.36434 2.83291,1.69719 4.19725,0.743454c0.289461,-0.202347 0.541107,-0.453993 0.743454,-0.743454l13.5937,-19.4644l2.1684e-09,-2.9606e-09c0.596265,-0.814103 0.524082,-1.93834 -0.1714,-2.6695Z" fill="#0D9C59" fill-rule="evenodd"></path>
</svg>