<?xml version="1.0" encoding="UTF-8"?>
<svg width="152px" height="152px" viewBox="0 0 152 152" version="1.1" xmlns="http://www.w3.org/2000/svg" xmlns:xlink="http://www.w3.org/1999/xlink">
    <!-- Generator: Sketch 51.2 (57519) - http://www.bohemiancoding.com/sketch -->
    <title>favicon</title>
    <desc>Created with Sketch.</desc>
    <defs></defs>
    <g id="favicon" stroke="none" stroke-width="1" fill="none" fill-rule="evenodd">
        <path d="M46.0074955,5.24666947e-15 L105.992504,-5.24666947e-15 C121.990313,-8.18541922e-15 127.791505,1.66570402 133.640065,4.79354796 C139.488624,7.9213919 144.078608,12.5113758 147.206452,18.3599354 C150.334296,24.2084951 152,30.009687 152,46.0074955 L152,105.992504 C152,121.990313 150.334296,127.791505 147.206452,133.640065 C144.078608,139.488624 139.488624,144.078608 133.640065,147.206452 C127.791505,150.334296 121.990313,152 105.992504,152 L46.0074955,152 C30.009687,152 24.2084951,150.334296 18.3599354,147.206452 C12.5113758,144.078608 7.9213919,139.488624 4.79354796,133.640065 C1.66570402,127.791505 7.82542193e-15,121.990313 5.86625543e-15,105.992504 L-5.86625543e-15,46.0074955 C-7.82542193e-15,30.009687 1.66570402,24.2084951 4.79354796,18.3599354 C7.9213919,12.5113758 12.5113758,7.9213919 18.3599354,4.79354796 C24.2084951,1.66570402 30.009687,8.18541922e-15 46.0074955,5.24666947e-15 Z M47.5191957,46.2994353 C47.3973045,47.3465779 47.862305,48.3761372 48.73203,48.9847763 L84.7245144,74.1725407 C84.9946614,74.3615912 85.2303126,74.594767 85.42137,74.862076 C86.3510872,76.1628471 86.0390942,77.9630983 84.7245144,78.8830495 L48.73203,104.070814 C47.862305,104.679453 47.3973045,105.709012 47.5191957,106.756155 L48.861707,118.289413 C48.9068606,118.677319 49.0507436,119.047545 49.2798881,119.36544 C50.0278596,120.403107 51.4843353,120.644321 52.5330181,119.904207 L110.666178,78.8763729 C110.92919,78.6907506 111.159194,78.4631635 111.346786,78.2029145 C112.28175,76.9058306 111.977032,75.10436 110.666178,74.1792169 L52.5330181,33.1513834 C52.2117488,32.9246459 51.8375921,32.7822742 51.4455688,32.737595 C50.1659312,32.5917536 49.0090967,33.4999805 48.861707,34.7661767 L47.5191957,46.2994353 Z" id="Combined-Shape" fill="#000000"></path>
    </g>
</svg>